<?xml version="1.0" encoding="UTF-8" standalone="no"?>
<!-- Created with Inkscape (http://www.inkscape.org/) -->

<svg
   xmlns:dc="http://purl.org/dc/elements/1.1/"
   xmlns:cc="http://creativecommons.org/ns#"
   xmlns:rdf="http://www.w3.org/1999/02/22-rdf-syntax-ns#"
   xmlns:svg="http://www.w3.org/2000/svg"
   xmlns="http://www.w3.org/2000/svg"
   xmlns:sodipodi="http://sodipodi.sourceforge.net/DTD/sodipodi-0.dtd"
   xmlns:inkscape="http://www.inkscape.org/namespaces/inkscape"
   width="260mm"
   height="260mm"
   viewBox="0 0 921.25999 921.25984"
   id="svg2"
   version="1.1"
   inkscape:version="0.91 r13725"
   sodipodi:docname="phatty.svg"
   inkscape:export-xdpi="90"
   inkscape:export-ydpi="90">
  <defs
     id="defs4" />
  <sodipodi:namedview
     id="base"
     pagecolor="#ffffff"
     bordercolor="#666666"
     borderopacity="1.0"
     inkscape:pageopacity="0.0"
     inkscape:pageshadow="2"
     inkscape:zoom="0.35"
     inkscape:cx="353.57143"
     inkscape:cy="791.42857"
     inkscape:document-units="px"
     inkscape:current-layer="layer1"
     showgrid="true"
     inkscape:snap-grids="false"
     inkscape:snap-nodes="true"
     inkscape:window-width="1280"
     inkscape:window-height="776"
     inkscape:window-x="0"
     inkscape:window-y="24"
     inkscape:window-maximized="1">
    <inkscape:grid
       type="xygrid"
       id="grid4136" />
  </sodipodi:namedview>
  <metadata
     id="metadata7">
    <rdf:RDF>
      <cc:Work
         rdf:about="">
        <dc:format>image/svg+xml</dc:format>
        <dc:type
           rdf:resource="http://purl.org/dc/dcmitype/StillImage" />
        <dc:title></dc:title>
      </cc:Work>
    </rdf:RDF>
  </metadata>
  <g
     inkscape:label="Capa 1"
     inkscape:groupmode="layer"
     id="layer1"
     style="display:inline"
     transform="translate(0,-131.10239)">
    <circle
       style="display:inline;opacity:1;fill:#191919;fill-opacity:1;fill-rule:nonzero;stroke:#333333;stroke-width:16;stroke-linecap:round;stroke-linejoin:round;stroke-miterlimit:4;stroke-dasharray:none;stroke-opacity:1"
       id="path4256-7"
       cx="460"
       cy="592.36218"
       r="440" />
    <circle
       style="opacity:1;fill:#191919;fill-opacity:1;fill-rule:nonzero;stroke:#333333;stroke-width:5;stroke-linecap:round;stroke-linejoin:round;stroke-miterlimit:4;stroke-dasharray:none;stroke-opacity:1"
       id="path4256"
       cx="460"
       cy="592.36224"
       r="280" />
    <ellipse
       style="opacity:1;fill:#252525;fill-opacity:1;fill-rule:nonzero;stroke:none;stroke-width:16;stroke-linecap:round;stroke-linejoin:round;stroke-miterlimit:4;stroke-dasharray:none;stroke-opacity:1"
       id="path4254"
       cx="460"
       cy="592.36218"
       rx="240.00002"
       ry="240" />
    <path
       style="fill:#333333;fill-opacity:1;stroke:#333333;stroke-width:16;stroke-linecap:round;stroke-linejoin:round;stroke-miterlimit:4;stroke-dasharray:none;stroke-opacity:1"
       d="m 457.14258,352.36135 a 240,240 0 0 0 -18.06445,0.90429 159.98352,159.98354 64.284 0 1 -65.86719,58.89063 159.98352,159.98354 64.284 0 1 -89.49414,14.42969 240,240 0 0 0 -24.50391,30.66015 159.98352,159.98354 12.856 0 1 5.78516,90.61133 159.98352,159.98354 12.856 0 1 -44.9961,79.45117 240,240 0 0 0 9.01172,37.74414 159.98354,159.98352 51.428 0 1 74.60742,52.01954 159.98354,159.98352 51.428 0 1 33.86914,83.14648 240,240 0 0 0 36.91211,17.03906 159.98354,159.98352 0 0 1 13.85157,-7.84375 159.98354,159.98352 0 0 1 1.21875,-0.54492 159.98354,159.98352 0 0 1 13.31445,-5.86914 159.98354,159.98352 0 0 1 3.00586,-0.99805 159.98354,159.98352 0 0 1 12.11914,-3.95117 159.98354,159.98352 0 0 1 4.46289,-1.00195 159.98354,159.98352 0 0 1 11.06445,-2.41797 159.98354,159.98352 0 0 1 6.03907,-0.73438 159.98354,159.98352 0 0 1 9.86328,-1.14062 159.98354,159.98352 0 0 1 10.6582,-0.37695 159.98354,159.98352 0 0 1 83.3418,23.65625 159.98354,159.98352 0 0 1 0.0332,0.0195 240,240 0 0 0 39.59375,-19.78321 159.98352,159.98354 38.568 0 1 33.41797,-79.21093 159.98352,159.98354 38.568 0 1 68.47266,-49.69532 A 240,240 0 0 0 695.0918,622.27346 159.98354,159.98352 77.14 0 1 655,547.84377 a 159.98354,159.98352 77.14 0 1 3.92773,-84.7793 240,240 0 0 0 -27.8789,-35.93164 159.98354,159.98352 25.712 0 1 -84.27149,-14.98242 159.98354,159.98352 25.712 0 1 -65.5332,-58.56836 240,240 0 0 0 -24.10156,-1.2207 z"
       id="path4138"
       inkscape:connector-curvature="0" />
    <circle
       style="opacity:1;fill:#8f8f8f;fill-opacity:1;fill-rule:nonzero;stroke:none;stroke-width:16;stroke-linecap:round;stroke-linejoin:round;stroke-miterlimit:4;stroke-dasharray:none;stroke-opacity:1"
       id="path4248"
       cx="460"
       cy="592.36224"
       r="160" />
    <circle
       style="opacity:1;fill:#ffffff;fill-opacity:1;fill-rule:nonzero;stroke:none;stroke-width:11.10204029;stroke-linecap:round;stroke-linejoin:round;stroke-miterlimit:4;stroke-dasharray:none;stroke-opacity:1"
       id="path4252"
       cx="753.1778"
       cy="-189.02475"
       r="13.877551"
       inkscape:transform-center-y="-122.46573"
       inkscape:transform-center-x="-158.14647"
       transform="matrix(0.6234976,0.78182526,-0.78182526,0.6234976,0,0)" />
    <path
       style="display:inline;opacity:1;fill:#ff9203;fill-opacity:1;fill-rule:nonzero;stroke:none;stroke-width:14.46938801;stroke-linecap:round;stroke-linejoin:round;stroke-miterlimit:4;stroke-dasharray:none;stroke-opacity:1"
       d="M 774.32422,349.61721 A 397.90816,397.90816 0 0 0 460,194.90822 397.90816,397.90816 0 0 0 62.08984,592.81643 397.90816,397.90816 0 0 0 244.63477,927.37893 l 41.125,-71.22852 A 315.96612,315.96612 0 0 1 144.0332,592.81643 315.96612,315.96612 0 0 1 460,276.85158 315.96612,315.96612 0 0 1 709.7207,399.50979 l 64.60352,-49.89258 z"
       id="path4317"
       inkscape:connector-curvature="0" />
    <path
       style="display:inline;opacity:1;fill:#7e3800;fill-opacity:1;fill-rule:nonzero;stroke:none;stroke-width:14.46938801;stroke-linecap:round;stroke-linejoin:round;stroke-miterlimit:4;stroke-dasharray:none;stroke-opacity:1"
       d="m 774.32422,349.61721 -64.60352,49.89258 a 315.96612,315.96612 0 0 1 66.24414,193.30664 315.96612,315.96612 0 0 1 -137.61132,260.41601 l 41.10351,71.19336 A 397.90816,397.90816 0 0 0 857.9082,592.81643 397.90816,397.90816 0 0 0 774.32422,349.61721 Z"
       id="path4256-7-1-6"
       inkscape:connector-curvature="0" />
  </g>
</svg>
